Coordinates
version=1
nRows=42
nColumns=11
inDegrees=yes

Units are S.I. units (second, meters, Newtons, ...)
If the header above contains a line with 'inDegrees', this indicates whether rotational values are in degrees (yes) or radians (no).

endheader
time	pelvis_tilt	pelvis_tx	pelvis_ty	hip_flexion_l	hip_flexion_r	knee_angle_l	knee_angle_r	ankle_angle_l	ankle_angle_r	lumbar_extension
      1.81000000	      0.63624321	     -0.79367773	      0.88761501	     35.31224486	     -5.96444206	    -19.55672894	    -30.09347103	     -3.93591337	      3.92619059	     -5.71201278
      1.82000000	      0.68630903	     -0.78175170	      0.88595556	     35.35368350	     -6.87930862	    -19.70774190	    -29.90374072	     -3.78480608	      3.44255042	     -5.77654783
      1.83000000	      0.67016819	     -0.76952357	      0.88432007	     35.44576258	     -7.76065800	    -20.22254343	    -29.73991212	     -3.55347474	      3.05263130	     -5.74293846
      1.84000000	      0.58828332	     -0.75708295	      0.88262984	     35.60362295	     -8.66384534	    -21.09202419	    -29.44540826	     -3.45727368	      2.73290890	     -5.61562070
      1.85000000	      0.43664885	     -0.74440403	      0.88097417	     35.80610925	     -9.52495261	    -22.26774336	    -29.01378842	     -3.85702937	      2.11538062	     -5.38779476
      1.86000000	     -0.03788397	     -0.73207107	      0.87937768	     36.57439344	    -10.00164284	    -24.02632442	    -28.51340599	     -5.81233358	      1.22530921	     -4.86025565
      1.87000000	     -0.56031178	     -0.71962333	      0.87795850	     37.67469277	    -10.40230954	    -26.59377035	    -28.08130424	     -5.51660062	      0.51864249	     -4.26123416
      1.88000000	     -0.94742411	     -0.70682344	      0.87682145	     38.82693007	    -10.96014450	    -29.51385387	    -27.62978408	     -3.93903999	     -0.70067593	     -3.77215503
      1.89000000	     -1.24606063	     -0.69371754	      0.87587934	     39.70814475	    -11.60386375	    -31.90940152	    -27.17158274	     -3.16228232	     -1.95740030	     -3.34546255
      1.90000000	     -1.51527266	     -0.68053817	      0.87517858	     40.21507044	    -12.20952635	    -33.47093132	    -26.79818969	     -3.49697535	     -3.23804162	     -2.94090588
      1.91000000	     -1.76481888	     -0.66734371	      0.87483931	     40.38468749	    -12.75823261	    -34.41867484	    -26.49726995	     -3.82494759	     -4.86163724	     -2.56709960
      1.92000000	     -2.06973263	     -0.65387635	      0.87480370	     40.46143854	    -13.16732582	    -35.45463413	    -26.30747727	     -2.96943525	     -6.65916068	     -2.09935664
      1.93000000	     -2.46742243	     -0.64065133	      0.87500498	     40.60270141	    -13.21020733	    -36.68866755	    -26.52002484	     -1.81138826	     -8.60035940	     -1.54975696
      1.94000000	     -2.84910395	     -0.62742474	      0.87563894	     40.60741273	    -13.12396848	    -37.66269007	    -26.85854252	     -0.96025502	    -10.75835077	     -1.03836790
      1.95000000	     -3.26316581	     -0.61413161	      0.87640494	     40.55137673	    -12.74325342	    -38.46161165	    -27.59616591	     -0.02005715	    -12.84899015	     -0.47060105
      1.96000000	     -3.65432227	     -0.60110644	      0.87742370	     40.39156551	    -12.19578514	    -39.04086169	    -28.49382857	      0.80060057	    -15.06973545	      0.04458522
      1.97000000	     -3.97628245	     -0.58826373	      0.87868276	     40.09807832	    -11.54586102	    -39.51697601	    -29.43913631	      1.63764234	    -17.79597196	      0.44875006
      1.98000000	     -4.23574156	     -0.57566144	      0.88012584	     39.67142800	    -10.79240494	    -39.87671672	    -30.71127148	      2.51240694	    -20.18203925	      0.74812395
      1.99000000	     -4.42328716	     -0.56332085	      0.88179717	     39.10274666	     -9.94854455	    -40.11390956	    -32.16286054	      3.39919122	    -22.48801994	      0.93966042
      2.00000000	     -4.57182552	     -0.55125383	      0.88359281	     38.47166009	     -8.93208518	    -40.28515285	    -33.83752391	      4.20299270	    -24.56274932	      1.05409472
      2.01000000	     -4.71407101	     -0.53934567	      0.88536994	     37.80763639	     -7.81511896	    -40.38409072	    -35.70115882	      5.08190558	    -25.71775499	      1.16586836
      2.02000000	     -4.74447619	     -0.52764667	      0.88741024	     36.99737927	     -6.65873352	    -40.39958848	    -37.53570279	      5.80826680	    -26.13589098	      1.11086044
      2.03000000	     -4.76818449	     -0.51610177	      0.88944083	     36.15350040	     -5.40527068	    -40.35778034	    -39.43449009	      6.54628090	    -25.16590844	      1.05506713
      2.04000000	     -4.79377266	     -0.50478716	      0.89156560	     35.25378052	     -4.07596628	    -40.16502660	    -41.16282122	      7.17919968	    -23.72456173	      0.97401185
      2.05000000	     -4.80936599	     -0.49355088	      0.89375749	     34.26602986	     -2.70488291	    -39.85946283	    -42.68691970	      7.80195742	    -22.28323526	      0.91063183
      2.06000000	     -4.84321002	     -0.48240596	      0.89617655	     33.24512399	     -1.28982005	    -39.39166034	    -43.94005437	      8.25756583	    -21.03696922	      0.87133775
      2.07000000	     -4.94162192	     -0.47141558	      0.89861345	     32.23723302	      0.27069647	    -38.83301038	    -45.07464996	      8.72720835	    -19.74826323	      0.91592187
      2.08000000	     -5.01206884	     -0.46056776	      0.90114356	     31.16138938	      1.87904313	    -38.16724647	    -46.13812591	      9.08449097	    -18.37058703	      0.92996925
      2.09000000	     -5.11299997	     -0.44993256	      0.90368785	     30.08317078	      3.58914702	    -37.40470166	    -47.11443409	      9.36485309	    -17.04659247	      0.98234589
      2.10000000	     -5.16206809	     -0.43921981	      0.90622320	     28.91741324	      5.26821484	    -36.57973341	    -47.96992745	      9.64026702	    -15.85602494	      0.98227770
      2.11000000	     -5.24607919	     -0.42868996	      0.90876595	     27.74266558	      7.03824661	    -35.66847983	    -48.80228651	      9.96833909	    -14.65540022	      1.04013203
      2.12000000	     -5.24002165	     -0.41835148	      0.91124605	     26.50344760	      8.78009877	    -34.76312813	    -49.56261198	     10.18382392	    -13.56429912	      0.96182629
      2.13000000	     -5.24926738	     -0.40820682	      0.91350816	     25.28487861	     10.58595656	    -33.83335991	    -50.33317083	     10.39063188	    -12.57086662	      0.88201025
      2.14000000	     -5.24090104	     -0.39816319	      0.91557486	     24.06427250	     12.40528527	    -32.90921113	    -50.98744534	     10.59255515	    -11.66026584	      0.77203682
      2.15000000	     -5.13862021	     -0.38824517	      0.91749067	     22.70917395	     14.14433230	    -31.91062844	    -51.51976535	     10.77412324	    -10.93875277	      0.54414247
      2.16000000	     -5.05212577	     -0.37822394	      0.91904056	     21.50534836	     15.86949286	    -31.17931249	    -51.98230332	     11.05874321	    -10.13712230	      0.33522993
      2.17000000	     -4.92353099	     -0.36840912	      0.92034152	     20.24050347	     17.54767479	    -30.37532389	    -52.27888895	     11.33032670	     -9.59075572	      0.02758404
      2.18000000	     -4.79798592	     -0.35849346	      0.92131009	     19.01218804	     19.20099493	    -29.65220158	    -52.44641810	     11.69908935	     -8.87033945	     -0.25452111
      2.19000000	     -4.61061179	     -0.34854017	      0.92199608	     17.74351463	     20.75082258	    -28.98935809	    -52.47864554	     12.09459648	     -8.42497765	     -0.60170700
      2.20000000	     -4.33225048	     -0.33858333	      0.92257048	     16.40783037	     22.10953692	    -28.38056685	    -52.31920268	     12.53913741	     -7.82619374	     -1.07067243
      2.21000000	     -4.10884488	     -0.32877036	      0.92265055	     15.22268974	     23.53760969	    -27.92381901	    -52.02247737	     13.02665714	     -7.65345887	     -1.48587451
      2.22000000	     -3.75281233	     -0.31875360	      0.92260110	     13.92583360	     24.73288858	    -27.56724949	    -51.58338355	     13.58421783	     -7.27645344	     -2.04032730
